<svg version="1.2" xmlns="http://www.w3.org/2000/svg" viewBox="0 0 1500 1000" width="1500" height="1000">
	<title>2819623</title>
	<defs>
		<radialGradient id="g1" cx="0" cy="0" r="1" gradientUnits="userSpaceOnUse" gradientTransform="matrix(844.417,0,0,844.417,730.976,552.001)">
			<stop offset="0" stop-color="#99abc7"/>
			<stop offset="1" stop-color="#3b277d"/>
		</radialGradient>
		<radialGradient id="g2" cx="0" cy="0" r="1" gradientUnits="userSpaceOnUse" gradientTransform="matrix(908.711,0,0,908.711,377.992,336.212)">
			<stop offset="0" stop-color="#3b277d"/>
			<stop offset="1" stop-color="#99abc7"/>
		</radialGradient>
		<radialGradient id="g3" cx="0" cy="0" r="1" gradientUnits="userSpaceOnUse" gradientTransform="matrix(765.266,0,0,765.266,368.381,411.194)">
			<stop offset="0" stop-color="#3b277d"/>
			<stop offset="1" stop-color="#99abc7"/>
		</radialGradient>
		<radialGradient id="g4" cx="0" cy="0" r="1" gradientUnits="userSpaceOnUse" gradientTransform="matrix(1424.857,0,0,1424.857,413.634,249.019)">
			<stop offset="0" stop-color="#3b277d"/>
			<stop offset="1" stop-color="#99abc7"/>
		</radialGradient>
		<radialGradient id="g5" cx="0" cy="0" r="1" gradientUnits="userSpaceOnUse" gradientTransform="matrix(-1233.796,0,0,-1233.796,522.001,852.897)">
			<stop offset="0" stop-color="#c1d0e8"/>
			<stop offset="1" stop-color="#54899e"/>
		</radialGradient>
		<radialGradient id="g6" cx="0" cy="0" r="1" gradientUnits="userSpaceOnUse" gradientTransform="matrix(519.326,0,0,519.326,517.617,881.827)">
			<stop offset="0" stop-color="#3b277d"/>
			<stop offset="1" stop-color="#99abc7"/>
		</radialGradient>
		<radialGradient id="g7" cx="0" cy="0" r="1" gradientUnits="userSpaceOnUse" gradientTransform="matrix(340.895,0,0,340.895,512.21,830.9)">
			<stop offset="0" stop-color="#3b277d"/>
			<stop offset="1" stop-color="#99abc7"/>
		</radialGradient>
		<radialGradient id="g8" cx="0" cy="0" r="1" gradientUnits="userSpaceOnUse" gradientTransform="matrix(1098.586,0,0,1098.586,522.301,933.653)">
			<stop offset="0" stop-color="#3b277d"/>
			<stop offset="1" stop-color="#99abc7"/>
		</radialGradient>
	</defs>
	<style>
		tspan { white-space:pre } 
		.s0 { fill: url(#g1) } 
		.s1 { mix-blend-mode: overlay;fill: #ffffff } 
		.s2 { opacity: .1;mix-blend-mode: screen;fill: #99abc7 } 
		.s3 { fill: #f2f2f2 } 
		.s4 { fill: #215262 } 
		.s5 { fill: url(#g2) } 
		.s6 { fill: url(#g3) } 
		.s7 { fill: url(#g4) } 
		.s8 { opacity: .05;mix-blend-mode: overlay;fill: #ffffff } 
		.s9 { fill: url(#g5) } 
		.s10 { opacity: .1;fill: #d0e0fa } 
		.s11 { fill: #ffffff } 
		.s12 { fill: url(#g6) } 
		.s13 { fill: url(#g7) } 
		.s14 { fill: url(#g8) } 
		.s15 { fill: #0e374a } 
	</style>
	<g id="background">
		<path id="&lt;Path&gt;" class="s0" d="m1500 1000h-1500v-1000h1500z"/>
	</g>
	<g id="objects">
		<path id="&lt;Path&gt;" class="s1" d="m264.07 394.47l0.89 1.81 1.99 0.29-1.44 1.41 0.34 1.98-1.78-0.94-1.78 0.94 0.34-1.98-1.45-1.41 2-0.29z"/>
		<path id="&lt;Path&gt;" class="s1" d="m150.46 364.51l0.89 1.81 2 0.29-1.45 1.41 0.35 1.98-1.79-0.94-1.78 0.94 0.34-1.98-1.44-1.41 1.99-0.29z"/>
		<path id="&lt;Path&gt;" class="s1" d="m350.51 164.42l0.89 1.8 1.99 0.29-1.44 1.41 0.34 1.98-1.78-0.93-1.79 0.93 0.35-1.98-1.45-1.41 2-0.29z"/>
		<path id="&lt;Path&gt;" class="s1" d="m534.19 321.22l0.89 1.8 1.99 0.29-1.44 1.41 0.34 1.99-1.78-0.94-1.79 0.94 0.34-1.99-1.44-1.41 1.99-0.29z"/>
		<path id="&lt;Path&gt;" class="s1" d="m322.25 174.73l0.89 1.81 2 0.29-1.45 1.41 0.34 1.98-1.78-0.94-1.78 0.94 0.34-1.98-1.44-1.41 1.99-0.29z"/>
		<path id="&lt;Path&gt;" class="s1" d="m50.45 171.99l0.89 1.81 1.99 0.29-1.44 1.4 0.34 1.99-1.78-0.94-1.78 0.94 0.34-1.99-1.44-1.4 1.99-0.29z"/>
		<path id="&lt;Path&gt;" class="s1" d="m253.44 38.4l0.89 1.81 2 0.29-1.44 1.41 0.34 1.98-1.79-0.94-1.78 0.94 0.34-1.98-1.44-1.41 1.99-0.29z"/>
		<path id="&lt;Path&gt;" class="s1" d="m229.78 310.67l0.89 1.81 2 0.29-1.45 1.4 0.34 1.99-1.78-0.94-1.78 0.94 0.34-1.99-1.44-1.4 1.99-0.29z"/>
		<path id="&lt;Path&gt;" class="s1" d="m132.78 263.85l0.9 1.81 1.99 0.29-1.44 1.4 0.34 1.99-1.79-0.94-1.78 0.94 0.34-1.99-1.44-1.4 1.99-0.29z"/>
		<path id="&lt;Path&gt;" class="s1" d="m170.5 236.48l0.89 1.81 1.99 0.29-1.44 1.4 0.34 1.99-1.78-0.94-1.79 0.94 0.34-1.99-1.44-1.4 2-0.29z"/>
		<path id="&lt;Path&gt;" class="s1" d="m1303.53 194.56l0.89 1.81 1.99 0.29-1.44 1.4 0.34 1.99-1.78-0.94-1.78 0.94 0.34-1.99-1.44-1.4 1.99-0.29z"/>
		<path id="&lt;Path&gt;" class="s1" d="m1189.92 164.6l0.9 1.81 1.99 0.29-1.44 1.4 0.34 1.99-1.79-0.94-1.78 0.94 0.34-1.99-1.44-1.4 1.99-0.29z"/>
		<path id="&lt;Path&gt;" class="s1" d="m1269.24 110.76l0.9 1.8 1.99 0.29-1.44 1.41 0.34 1.98-1.79-0.93-1.78 0.93 0.34-1.98-1.44-1.41 1.99-0.29z"/>
		<path id="&lt;Path&gt;" class="s1" d="m1172.25 63.94l0.89 1.8 1.99 0.29-1.44 1.41 0.34 1.98-1.78-0.93-1.79 0.93 0.34-1.98-1.44-1.41 1.99-0.29z"/>
		<path id="&lt;Path&gt;" class="s1" d="m1209.96 36.57l0.89 1.8 1.99 0.29-1.44 1.41 0.34 1.98-1.78-0.93-1.78 0.93 0.34-1.98-1.45-1.41 2-0.29z"/>
		<path id="&lt;Path&gt;" class="s1" d="m685.99 251.67l0.89 1.8 1.99 0.29-1.44 1.41 0.34 1.98-1.78-0.93-1.79 0.93 0.34-1.98-1.44-1.41 2-0.29z"/>
		<path id="&lt;Path&gt;" class="s1" d="m950.98 63.94l0.89 1.8 1.99 0.29-1.44 1.41 0.34 1.98-1.78-0.93-1.79 0.93 0.34-1.98-1.44-1.41 2-0.29z"/>
		<path id="&lt;Path&gt;" class="s1" d="m1093.18 110.76l0.9 1.8 1.99 0.29-1.44 1.41 0.34 1.98-1.79-0.93-1.78 0.93 0.34-1.98-1.44-1.41 1.99-0.29z"/>
		<path id="&lt;Path&gt;" class="s1" d="m1465.59 146.07l0.89 1.81 2 0.29-1.44 1.4 0.34 1.99-1.79-0.94-1.78 0.94 0.34-1.99-1.44-1.4 1.99-0.29z"/>
		<path id="&lt;Path&gt;" class="s1" d="m1447.91 45.41l0.9 1.8 1.99 0.29-1.44 1.41 0.34 1.98-1.79-0.93-1.78 0.93 0.34-1.98-1.44-1.41 1.99-0.29z"/>
		<path id="&lt;Path&gt;" class="s1" d="m1368.85 92.22l0.89 1.81 2 0.29-1.44 1.41 0.34 1.98-1.79-0.94-1.78 0.94 0.34-1.98-1.44-1.41 1.99-0.29z"/>
		<path id="&lt;Path&gt;" class="s1" d="m588.99 204.85l0.89 1.81 1.99 0.28-1.44 1.41 0.34 1.99-1.78-0.94-1.78 0.94 0.34-1.99-1.45-1.41 2-0.28z"/>
		<path id="&lt;Path&gt;" class="s1" d="m626.7 177.48l0.89 1.8 2 0.29-1.45 1.41 0.34 1.98-1.78-0.93-1.78 0.93 0.34-1.98-1.44-1.41 1.99-0.29z"/>
		<path id="&lt;Path&gt;" class="s1" d="m385.22 277.84l0.89 1.81 1.99 0.29-1.44 1.4 0.34 1.99-1.78-0.94-1.79 0.94 0.34-1.99-1.44-1.4 2-0.29z"/>
		<path id="&lt;Path&gt;" class="s1" d="m1030.28 164.42l0.89 1.8 2 0.29-1.44 1.41 0.34 1.98-1.79-0.93-1.78 0.93 0.34-1.98-1.44-1.41 1.99-0.29z"/>
		<path id="&lt;Path&gt;" class="s1" d="m1002.03 174.73l0.89 1.81 1.99 0.29-1.44 1.41 0.34 1.98-1.78-0.94-1.79 0.94 0.34-1.98-1.44-1.41 2-0.29z"/>
		<path id="&lt;Path&gt;" class="s1" d="m812.56 263.85l0.89 1.81 1.99 0.29-1.44 1.4 0.34 1.99-1.78-0.94-1.78 0.94 0.34-1.99-1.44-1.4 1.99-0.29z"/>
		<path id="&lt;Path&gt;" class="s1" d="m850.27 236.48l0.89 1.81 2 0.29-1.45 1.4 0.34 1.99-1.78-0.94-1.78 0.94 0.34-1.99-1.44-1.4 1.99-0.29z"/>
		<path id="&lt;Path&gt;" class="s1" d="m1240.65 212.87l0.89 1.8 1.99 0.29-1.44 1.41 0.34 1.98-1.78-0.94-1.79 0.94 0.34-1.98-1.44-1.41 2-0.29z"/>
		<path id="&lt;Path&gt;" class="s1" d="m1187.04 280.59l0.89 1.8 1.99 0.29-1.44 1.41 0.34 1.98-1.78-0.94-1.78 0.94 0.34-1.98-1.44-1.41 1.99-0.29z"/>
		<g id="&lt;Group&gt;">
			<path id="&lt;Path&gt;" class="s2" d="m564.08 516.58c0 90.69-73.52 164.22-164.22 164.22-90.7 0-164.22-73.53-164.22-164.22 0-90.7 73.52-164.23 164.22-164.23 90.7 0 164.22 73.53 164.22 164.23z"/>
			<path id="&lt;Path&gt;" class="s2" d="m504.18 516.58c0 57.61-46.71 104.31-104.32 104.31-57.61 0-104.31-46.7-104.31-104.31 0-57.62 46.7-104.32 104.31-104.32 57.61 0 104.31 46.7 104.31 104.32z"/>
			<path id="&lt;Path&gt;" class="s2" d="m467.77 516.58c0 37.5-30.4 67.9-67.91 67.9-37.5 0-67.91-30.4-67.91-67.9 0-37.51 30.41-67.91 67.91-67.91 37.51 0 67.91 30.4 67.91 67.91z"/>
			<path id="&lt;Path&gt;" class="s3" d="m452.58 516.58c0 29.11-23.6 52.71-52.72 52.71-29.11 0-52.72-23.6-52.72-52.71 0-29.12 23.61-52.72 52.72-52.72 29.12 0 52.72 23.6 52.72 52.72z"/>
		</g>
		<g id="&lt;Group&gt;">
			<path id="&lt;Path&gt;" class="s4" d="m808.54 543.91h-32.34l-14.74 16.22z"/>
			<path id="&lt;Path&gt;" class="s5" d="m1115.71 403.39l-30.96-20.86-34.05-18.57-48.56-2.1-37.23 9.18-21.54 3.52-19.93-4.57-23.2-3.16-36.16 2.95-61.49-20.89-67.54-24.89-27.83 9.87-32.13 4.48-30.04 1.88-28.27 15.42-51.04 34.05-23.34 60.3-34.58 8.46-25.74 41.89-80.97 57.03-35.61-29.42-27.96-7.96-55.6-74-58.57-26.03-37.46-13.26-38.7-5.68-39.48-28.72-15.55-10.85-17.36-6.76-27.86 11.19-34.74 21.37-7.52 7.18-3.06 2.99-1.64 0.34v453.66h1117.54v-447.28z"/>
			<path id="&lt;Path&gt;" class="s6" d="m1118.33 445.68l-112.21-21-78.63-14.83-27.84 8.58-7.02 3.11-15.12-0.36-49.24-7.87-44.72 0.52-80.17-17.93-64.48 21.06-51.21 1.94-4.22 39.43-49.85 85.67-119.99 76-131.37-116.55-36.5-46.1-43.51 14.52-71-32.84-43.72-17.39-45.3-3.25-42.23-4.13v341.13h1143.88v-338.88z"/>
			<path id="&lt;Path&gt;" class="s7" d="m1489.67 175.65l-142.04 66.84-92.15 45.27-66.45 27.07-45.37-9.72-18.24-4.19-18.35 8.68-13.72 21.33-14.43 46.87-48.14 32.97-34.97 11.09-44.99 3.86-78.42 44.74-8.65 62.17-77.56-1.63-41.65 14.48-43.62-22.13-95.05 22.22-173.59 116.57-77.99-25.14-90.22-93.83-77.98-34.62-61 18.55-37.43-17.53-74.03 0.58-13.63-9.44v266.5h1500v-597.31z"/>
			<path id="&lt;Path&gt;" class="s8" d="m1500 188.56l-292.09 129.79h115.37v54.98l128.82-109.99 32.09 14.55 15.81-51.03z"/>
			<path id="&lt;Path&gt;" class="s8" d="m1118.05 323.96l25.83 21.08-61.87 37.1z"/>
			<path id="&lt;Path&gt;" class="s8" d="m962.71 441.36l-72.07 43.15v23.11l26.21-16.79 9.91 37.27z"/>
			<path id="&lt;Path&gt;" class="s8" d="m671.65 543.91l-57.83 16.22-143.9 97.53 172.54-72.02-21.66-10.14z"/>
			<path id="&lt;Path&gt;" class="s8" d="m1412.02 373.33l-43.19 80.84-120.14 53.45 168.53-38.28z"/>
			<path id="&lt;Path&gt;" class="s8" d="m80.28 526.68l-67.07-16.82-13.21-6.32v12.36l9.33 1.29 33.21 26.72 76.1 8.11z"/>
			<path id="&lt;Path&gt;" class="s8" d="m186.09 508.55l77.98 34.62-120.14-6.02z"/>
		</g>
		<path id="&lt;Path&gt;" class="s9" d="m-0.46 705.79v294.21h1500.46v-294.21z"/>
		<g id="&lt;Group&gt;" style="opacity: .3">
			<g id="&lt;Group&gt;">
				<path id="&lt;Path&gt;" class="s10" d="m634.86 848c0 75.29-63.48 136.32-141.78 136.32-78.3 0-141.78-61.03-141.78-136.32 0-75.28 63.48-136.31 141.78-136.31 78.3 0 141.78 61.03 141.78 136.31z"/>
				<path id="&lt;Path&gt;" class="s10" d="m610.6 848c0 62.4-52.62 112.99-117.52 112.99-64.9 0-117.51-50.59-117.51-112.99 0-62.4 52.61-112.98 117.51-112.98 64.9 0 117.52 50.58 117.52 112.98z"/>
				<path id="&lt;Path&gt;" class="s10" d="m580.14 848c0 46.23-38.98 83.7-87.06 83.7-48.08 0-87.05-37.47-87.05-83.7 0-46.22 38.97-83.69 87.05-83.69 48.08 0 87.06 37.47 87.06 83.69z"/>
				<path id="&lt;Path&gt;" class="s11" d="m560.66 848c0 35.89-30.25 64.98-67.58 64.98-37.32 0-67.58-29.09-67.58-64.98 0-35.88 30.26-64.97 67.58-64.97 37.33 0 67.58 29.09 67.58 64.97z"/>
			</g>
			<path id="&lt;Path&gt;" class="s12" d="m0 705.18v129.67l1.87-0.51 42.29-3.26 38.07-2.44 47.24 12.13 42.99 1.07 32.37 5.86c0 0 14.91 4.84 23.24 6.64l2.12 0.77c1.77 1.12 5.51 3.31 5.51 3.31l12.73 4.85 10.39 1.46 2.09 1.39 5.14 3.34 23.73 9.94 19.04 5.2 11.86-3.14 10.62-5.05 26.98-13.35 26.43-2.64 25.6-6.17 40.94-20.75 15.48-2.97 18.69 3.26 24.33-13.68 29.32 17.22 17.59 19.48 42.25 4.05 45.31 7.47 34.87 15.83 19.31 7.17 20.52 0.88 21.95 2.08 19.02 4.59 46.14-11.57 42.01-9.72 24.7 1.37 15.86-1.47 13.61-2.12 14.72 1.63 25.44 4.27 33.17-0.98 23.26-8.63 21.16-9.7 1.25-0.35v-156.43z"/>
			<path id="&lt;Path&gt;" class="s13" d="m0 705.18v152.15l44.33 7.85 24.16 19.78 15.19 11.11 36.83-4.05 18.07-10.24 19.79-11.26 52.75-20.18 57.43-3.76 30.95-1.48 29.87-7.94 48.51-14.99 29.73 6.62 24.94-21.04 86.81-31.93 87.23 29.87 31.75 22.66 2.88 18 34.99 0.88 44.05 9.62 54.77-8.19 30.55 0.24 33.64-3.59 10.33-0.16 4.8 1.42 19.02 3.91 53.72-6.77 76.66-9.59 17.46 13.32v-142.26z"/>
			<path id="&lt;Path&gt;" class="s14" d="m0 705.18v207.6l44.71-23.41 34.99-15.04 19.38 1.43 44.44-6.62 35.17-26.72 19.3-13.79 51.03-25.94 50.57 0.29 25.58-8.79 41.67 9.3 53.28-17.36 61.63-47.06 53.29-12.61 118.59 58.47 64.95 11.14 29.8-11.1 28.45 7.26 52.99-0.82 5.91 31.18 53.58 22.44 30.73 1.94 23.89 5.56 32.9 16.54 9.85 23.5 9.38 10.7 12.54 4.36 12.46-2.11 31-4.87 45.39 13.57 62.96 22.71 97.04 33.52 26.51 10.83 30.23-8.05 53.77-2.72 35.13 9.99 36.96 8.33c0 0 39 8.78 59.95 11.78v-295.43z"/>
		</g>
		<g id="&lt;Group&gt;">
			<g id="&lt;Group&gt;">
				<path id="&lt;Path&gt;" class="s15" d="m880.23 705.76l-14.51-39.98h2.06l-11.51-26.04-0.52-1.44h1.04l-11.38-33.68-11.38 33.68h1.04l-0.52 1.44-11.51 26.04h2.06l-14.51 39.98z"/>
				<path id="&lt;Path&gt;" class="s15" d="m953.86 705.76l-10.14-27.95h1.43l-8.04-18.21-0.37-1h0.73l-7.96-23.55-7.96 23.55h0.73l-0.36 1-8.05 18.21h1.44l-10.15 27.95z"/>
				<path id="&lt;Path&gt;" class="s15" d="m1030.35 705.76l-14.51-39.98h2.05l-11.5-26.04-0.52-1.44h1.04l-11.38-33.68-11.38 33.68h1.04l-0.52 1.44-11.51 26.04h2.06l-14.52 39.98z"/>
				<path id="&lt;Path&gt;" class="s15" d="m1103.98 705.76l-10.15-27.95h1.44l-8.05-18.21-0.36-1h0.73l-7.96-23.55-7.96 23.55h0.73l-0.36 1-8.05 18.21h1.44l-10.15 27.95z"/>
				<path id="&lt;Path&gt;" class="s15" d="m1143.95 705.76l-6.51-17.93h0.92l-5.16-11.69-0.23-0.64h0.46l-5.1-15.12-5.11 15.12h0.47l-0.23 0.64-5.17 11.69h0.92l-6.51 17.93z"/>
				<path id="&lt;Path&gt;" class="s15" d="m739.97 705.76l10.14-27.95h-1.43l8.04-18.21 0.36-1h-0.72l7.95-23.55 7.96 23.55h-0.73l0.37 1 8.04 18.21h-1.43l10.14 27.95z"/>
				<path id="&lt;Path&gt;" class="s15" d="m699.99 705.76l6.51-17.93h-0.92l5.16-11.69 0.24-0.64h-0.47l5.11-15.12 5.1 15.12h-0.46l0.23 0.64 5.16 11.69h-0.92l6.51 17.93z"/>
				<path id="&lt;Path&gt;" class="s15" d="m634.37 705.76l6.51-17.93h-0.92l5.16-11.69 0.24-0.64h-0.47l5.11-15.12 5.1 15.12h-0.47l0.24 0.64 5.16 11.69h-0.92l6.51 17.93z"/>
				<path id="&lt;Path&gt;" class="s15" d="m88.83 705.76l14.51-39.98h-2.05l11.5-26.04 0.52-1.44h-1.04l11.38-33.68 11.38 33.68h-1.04l0.52 1.44 11.51 26.04h-2.06l14.51 39.98z"/>
				<path id="&lt;Path&gt;" class="s15" d="m15.2 705.76l10.14-27.95h-1.43l8.04-18.21 0.37-1h-0.73l7.96-23.55 7.96 23.55h-0.73l0.36 1 8.05 18.21h-1.44l10.15 27.95z"/>
				<path id="&lt;Path&gt;" class="s15" d="m229.09 705.76l-10.14-27.95h1.43l-8.04-18.21-0.36-1h0.72l-7.95-23.55-7.96 23.55h0.73l-0.37 1-8.04 18.21h1.43l-10.14 27.95z"/>
				<path id="&lt;Path&gt;" class="s15" d="m269.07 705.76l-6.51-17.93h0.92l-5.16-11.69-0.24-0.64h0.47l-5.11-15.12-5.1 15.12h0.46l-0.23 0.64-5.16 11.69h0.92l-6.51 17.93z"/>
				<path id="&lt;Path&gt;" class="s15" d="m378.87 705.76l-6.51-17.93h0.92l-5.16-11.69-0.23-0.64h0.46l-5.1-15.12-5.11 15.12h0.47l-0.23 0.64-5.17 11.69h0.92l-6.51 17.93z"/>
				<path id="&lt;Path&gt;" class="s15" d="m596.17 705.76l-4.25-11.71h0.6l-3.37-7.63-0.15-0.42h0.3l-3.33-9.86-3.34 9.86h0.31l-0.15 0.42-3.37 7.63h0.6l-4.25 11.71z"/>
				<path id="&lt;Path&gt;" class="s15" d="m1272.71 705.76l-14.51-39.98h2.05l-11.5-26.04-0.52-1.44h1.04l-11.38-33.68-11.38 33.68h1.04l-0.52 1.44-11.51 26.04h2.06l-14.51 39.98z"/>
				<path id="&lt;Path&gt;" class="s15" d="m1346.34 705.76l-10.15-27.95h1.44l-8.05-18.21-0.36-1h0.73l-7.96-23.55-7.96 23.55h0.73l-0.36 1-8.05 18.21h1.44l-10.15 27.95z"/>
				<path id="&lt;Path&gt;" class="s15" d="m1422.83 705.76l-14.51-39.98h2.05l-11.5-26.04-0.52-1.44h1.04l-11.38-33.68-11.38 33.68h1.04l-0.52 1.44-11.51 26.04h2.05l-14.51 39.98z"/>
				<path id="&lt;Path&gt;" class="s15" d="m1496.46 705.76l-10.15-27.95h1.44l-8.05-18.21-0.36-1h0.73l-7.96-23.55-7.96 23.55h0.73l-0.36 1-8.05 18.21h1.44l-10.15 27.95z"/>
			</g>
			<g id="&lt;Group&gt;" style="opacity: .3">
				<path id="&lt;Path&gt;" class="s4" d="m880.23 705.76l-14.51 17.87h2.06l-11.51 11.63-0.52 0.64h1.04l-11.38 15.05-11.38-15.05h1.04l-0.52-0.64-11.51-11.63h2.06l-14.51-17.87z"/>
				<path id="&lt;Path&gt;" class="s4" d="m953.86 705.76l-10.14 12.49h1.43l-8.04 8.14-0.37 0.45h0.73l-7.96 10.52-7.96-10.52h0.73l-0.36-0.45-8.05-8.14h1.44l-10.15-12.49z"/>
				<path id="&lt;Path&gt;" class="s4" d="m1030.35 705.76l-14.51 17.87h2.05l-11.5 11.63-0.52 0.64h1.04l-11.38 15.05-11.38-15.05h1.04l-0.52-0.64-11.51-11.63h2.06l-14.52-17.87z"/>
				<path id="&lt;Path&gt;" class="s4" d="m1103.98 705.76l-10.15 12.49h1.44l-8.05 8.14-0.36 0.45h0.73l-7.96 10.52-7.96-10.52h0.73l-0.36-0.45-8.05-8.14h1.44l-10.15-12.49z"/>
				<path id="&lt;Path&gt;" class="s4" d="m1143.95 705.76l-6.51 8.02h0.92l-5.16 5.22-0.23 0.29h0.46l-5.1 6.75-5.11-6.75h0.47l-0.23-0.29-5.17-5.22h0.92l-6.51-8.02z"/>
				<path id="&lt;Path&gt;" class="s4" d="m739.97 705.76l10.14 12.49h-1.43l8.04 8.14 0.36 0.45h-0.72l7.95 10.52 7.96-10.52h-0.73l0.37-0.45 8.04-8.14h-1.43l10.14-12.49z"/>
				<path id="&lt;Path&gt;" class="s4" d="m699.99 705.76l6.51 8.02h-0.92l5.16 5.22 0.24 0.29h-0.47l5.11 6.75 5.1-6.75h-0.46l0.23-0.29 5.16-5.22h-0.92l6.51-8.02z"/>
				<path id="&lt;Path&gt;" class="s4" d="m634.37 705.76l6.51 8.02h-0.92l5.16 5.22 0.24 0.29h-0.47l5.11 6.75 5.1-6.75h-0.47l0.24-0.29 5.16-5.22h-0.92l6.51-8.02z"/>
				<path id="&lt;Path&gt;" class="s4" d="m88.83 705.76l14.51 17.87h-2.05l11.5 11.63 0.52 0.64h-1.04l11.38 15.05 11.38-15.05h-1.04l0.52-0.64 11.51-11.63h-2.06l14.51-17.87z"/>
				<path id="&lt;Path&gt;" class="s4" d="m15.2 705.76l10.14 12.49h-1.43l8.04 8.14 0.37 0.45h-0.73l7.96 10.52 7.96-10.52h-0.73l0.36-0.45 8.05-8.14h-1.44l10.15-12.49z"/>
				<path id="&lt;Path&gt;" class="s4" d="m229.09 705.76l-10.14 12.49h1.43l-8.04 8.14-0.36 0.45h0.72l-7.95 10.52-7.96-10.52h0.73l-0.37-0.45-8.04-8.14h1.43l-10.14-12.49z"/>
				<path id="&lt;Path&gt;" class="s4" d="m269.07 705.76l-6.51 8.02h0.92l-5.16 5.22-0.24 0.29h0.47l-5.11 6.75-5.1-6.75h0.46l-0.23-0.29-5.16-5.22h0.92l-6.51-8.02z"/>
				<path id="&lt;Path&gt;" class="s4" d="m378.87 705.76l-6.51 8.02h0.92l-5.16 5.22-0.23 0.29h0.46l-5.1 6.75-5.11-6.75h0.47l-0.23-0.29-5.17-5.22h0.92l-6.51-8.02z"/>
				<path id="&lt;Path&gt;" class="s4" d="m596.17 705.76l-4.25 5.24h0.6l-3.37 3.41-0.15 0.18h0.3l-3.33 4.41-3.34-4.41h0.31l-0.15-0.18-3.37-3.41h0.6l-4.25-5.24z"/>
				<path id="&lt;Path&gt;" class="s4" d="m1272.71 705.76l-14.51 17.87h2.05l-11.5 11.63-0.52 0.64h1.04l-11.38 15.05-11.38-15.05h1.04l-0.52-0.64-11.51-11.63h2.06l-14.51-17.87z"/>
				<path id="&lt;Path&gt;" class="s4" d="m1346.34 705.76l-10.15 12.49h1.44l-8.05 8.14-0.36 0.45h0.73l-7.96 10.52-7.96-10.52h0.73l-0.36-0.45-8.05-8.14h1.44l-10.15-12.49z"/>
				<path id="&lt;Path&gt;" class="s4" d="m1422.83 705.76l-14.51 17.87h2.05l-11.5 11.63-0.52 0.64h1.04l-11.38 15.05-11.38-15.05h1.04l-0.52-0.64-11.51-11.63h2.05l-14.51-17.87z"/>
				<path id="&lt;Path&gt;" class="s4" d="m1496.46 705.76l-10.15 12.49h1.44l-8.05 8.14-0.36 0.45h0.73l-7.96 10.52-7.96-10.52h0.73l-0.36-0.45-8.05-8.14h1.44l-10.15-12.49z"/>
			</g>
		</g>
		<g id="&lt;Group&gt;">
			<g id="&lt;Group&gt;">
				<g id="&lt;Group&gt;">
					<g id="&lt;Group&gt;">
						<path id="&lt;Path&gt;" class="s11" d="m806.25 103.37c-1.93 1.89-1.97 5-0.08 6.94 1.89 1.93 5 1.96 6.93 0.07 1.93-1.89 1.97-5 0.08-6.93-1.89-1.94-5-1.97-6.93-0.08z"/>
					</g>
				</g>
			</g>
			<g id="&lt;Group&gt;">
				<g id="&lt;Group&gt;">
					<g id="&lt;Group&gt;">
					</g>
				</g>
				<g id="&lt;Group&gt;">
					<g id="&lt;Group&gt;">
						<g id="&lt;Group&gt;">
						</g>
					</g>
				</g>
			</g>
		</g>
	</g>
</svg>