<svg version="1.1" id="Layer_1" xmlns="http://www.w3.org/2000/svg" xmlns:xlink="http://www.w3.org/1999/xlink" x="0px" y="0px"
	 width="100%" viewBox="0 0 1024 672" enable-background="new 0 0 1024 672" xml:space="preserve">
<path fill="#000000" opacity="1.000000" stroke="none" 
	d="
M207.668533,395.999939 
	C207.668732,344.846954 207.658783,294.194031 207.675095,243.541092 
	C207.681213,224.512756 219.514648,212.704636 238.573044,212.699539 
	C288.059631,212.686310 337.548889,212.992004 387.031372,212.539917 
	C404.778259,212.377777 417.698669,226.278168 417.562103,242.761292 
	C417.033356,306.572937 417.351440,370.391571 417.345062,434.207611 
	C417.343292,451.691040 405.001648,464.263336 387.599213,464.282928 
	C337.612823,464.339233 287.626312,464.338135 237.639908,464.289825 
	C219.763275,464.272552 207.700165,451.983948 207.677490,433.989166 
	C207.661758,421.492767 207.670822,408.996338 207.668533,395.999939 
M400.676331,421.496368 
	C400.676178,363.171051 400.677002,304.845764 400.675140,246.520462 
	C400.674713,233.567139 396.568970,229.401184 383.764008,229.399658 
	C336.437164,229.394012 289.110321,229.392593 241.783493,229.401718 
	C228.653961,229.404251 224.376251,233.674377 224.373962,246.787903 
	C224.363281,308.112793 224.360825,369.437653 224.366272,430.762543 
	C224.367355,443.048676 228.304520,447.009277 240.459427,447.011505 
	C279.953979,447.018829 319.448517,447.021057 358.943054,447.022400 
	C368.441681,447.022736 377.942596,447.139282 387.438263,446.969055 
	C395.981232,446.815887 400.579803,441.990265 400.667664,433.492249 
	C400.705566,429.826477 400.675171,426.160004 400.676331,421.496368 
z"/>
<path fill="#000000" opacity="1.000000" stroke="none" 
	d="
M503.684753,348.013641 
	C503.685516,343.361206 503.685516,339.205414 503.685516,333.873627 
	C500.674011,338.285919 499.769623,342.420441 498.311615,346.258911 
	C495.712982,353.100311 493.128082,359.967468 491.028137,366.970978 
	C489.447662,372.241852 485.512482,371.170044 481.798279,371.390472 
	C478.249786,371.601135 475.932251,370.731415 474.680939,366.877350 
	C470.995575,355.526337 466.928223,344.299316 462.074341,333.138214 
	C462.074341,344.179749 462.104919,355.221405 462.050262,366.262665 
	C462.038330,368.674530 462.792969,372.000824 459.819366,372.782196 
	C456.039154,373.775543 451.889343,374.128693 448.113373,372.372192 
	C446.622620,371.678741 446.725433,369.833069 446.724548,368.327850 
	C446.712982,349.014130 446.744690,329.700317 446.682281,310.386780 
	C446.671204,306.955292 448.198303,305.792603 451.522766,305.642548 
	C467.146454,304.937042 467.161896,304.863739 472.225250,319.768433 
	C475.488007,329.372894 478.684204,338.999939 481.926666,348.611328 
	C482.026703,348.907745 482.309601,349.142517 482.561493,349.478302 
	C484.301544,349.317841 484.259674,347.775391 484.640259,346.640900 
	C488.712311,334.502045 492.830170,322.377563 496.756592,310.191528 
	C497.787170,306.993073 499.542084,305.601562 502.900543,305.664032 
	C521.328796,306.006622 518.085388,303.120697 518.292175,320.217682 
	C518.479431,335.699738 518.348022,351.185883 518.324219,366.670197 
	C518.314392,373.071411 518.028992,373.290710 510.884766,373.301178 
	C503.866394,373.311462 503.716705,373.187531 503.687988,366.491974 
	C503.662323,360.498199 503.683502,354.504181 503.684753,348.013641 
z"/>
<path fill="#000000" opacity="1.000000" stroke="none" 
	d="
M570.697144,335.468323 
	C568.927551,337.183746 569.605774,338.231720 571.001099,339.353821 
	C577.947388,344.940125 579.742798,352.131073 576.859131,360.351318 
	C573.820923,369.012268 566.608826,372.518677 558.229431,373.101929 
	C549.280945,373.724762 540.256592,373.225525 531.265869,373.288361 
	C527.788208,373.312653 526.651184,371.538147 526.659119,368.288818 
	C526.706360,348.973755 526.709595,329.658356 526.626770,310.343475 
	C526.611694,306.834808 528.230103,305.635895 531.505005,305.669098 
	C539.663147,305.751953 547.841003,305.376312 555.975952,305.822632 
	C563.642334,306.243286 570.377502,309.130798 573.770752,316.676788 
	C576.762878,323.330780 575.909424,329.657654 570.697144,335.468323 
M561.980347,355.461914 
	C563.449524,351.790680 562.124084,348.713623 559.249695,346.659851 
	C554.579773,343.323029 548.926575,343.466156 543.857788,344.842316 
	C540.654358,345.711975 542.658936,349.839172 542.278015,352.482330 
	C542.043152,354.112122 542.239746,355.808350 542.289062,357.473389 
	C542.324036,358.657532 542.501770,359.734650 543.770569,360.384521 
	C547.816528,362.456879 558.472168,359.964142 561.980347,355.461914 
M547.594666,332.661438 
	C550.573486,332.621490 553.601074,332.964417 556.377747,331.436035 
	C560.228210,329.316559 561.062378,324.741211 558.116272,321.818420 
	C555.927185,319.646790 546.544006,318.213623 543.790649,319.544708 
	C542.495361,320.170898 542.321167,321.252258 542.292053,322.429901 
	C542.242798,324.423920 542.372559,326.427612 542.228516,328.412842 
	C541.986450,331.751221 543.624512,332.934143 547.594666,332.661438 
z"/>
<path fill="#000000" opacity="1.000000" stroke="none" 
	d="
M686.138000,322.156219 
	C688.495728,323.190369 690.457581,324.090363 692.746338,325.140320 
	C694.428223,323.837097 695.751526,321.819733 698.645813,321.709167 
	C707.429626,321.373566 708.143250,321.821198 708.154541,330.534821 
	C708.170288,342.691895 708.265747,354.850800 708.098755,367.005737 
	C707.871887,383.519348 698.747620,392.750214 682.345093,392.921143 
	C675.780457,392.989563 669.520386,391.313416 663.807312,387.820526 
	C661.076355,386.150848 659.680176,384.302124 662.097229,381.470795 
	C664.319702,378.867401 665.205933,373.501495 670.633972,376.905273 
	C672.754761,378.235168 674.842041,379.542328 677.316895,380.180756 
	C686.806396,382.628815 693.280518,377.613983 693.389832,367.650757 
	C692.512268,366.895752 691.828186,367.607697 691.229858,368.054077 
	C679.373962,376.899780 661.998657,370.504669 659.002319,353.044128 
	C657.728882,345.624176 658.175598,338.095947 662.356995,331.286774 
	C667.864014,322.318665 676.129639,320.520599 686.138000,322.156219 
M684.918030,359.257721 
	C694.121521,357.403290 695.658875,344.885864 690.808899,337.949249 
	C687.756409,333.583496 680.930725,332.963135 677.199585,336.744720 
	C673.266479,340.731049 672.593567,345.736053 673.995361,351.025360 
	C675.375977,356.234833 678.650696,359.255066 684.918030,359.257721 
z"/>
<path fill="#000000" opacity="1.000000" stroke="none" 
	d="
M730.593201,379.592651 
	C741.815979,382.732727 748.833618,377.897858 748.360901,367.273804 
	C743.357849,370.022461 738.529053,372.960480 732.573914,371.799103 
	C726.811707,370.675323 721.841614,368.338959 718.395264,363.362457 
	C711.524475,353.441040 712.185120,337.138336 719.830139,328.306000 
	C726.499268,320.601105 735.969360,319.514069 747.773804,325.247101 
	C750.688660,319.989441 755.703674,321.910248 760.131348,321.972839 
	C762.334351,322.003998 763.105896,323.924103 763.104187,325.919373 
	C763.091003,341.229095 763.839355,356.595032 762.773438,371.833130 
	C761.654175,387.833771 748.617249,393.251953 735.606934,392.848877 
	C730.095947,392.678162 724.799316,391.111420 719.906616,388.379150 
	C716.741577,386.611633 714.749695,384.670746 717.570190,380.979370 
	C719.816833,378.039001 721.221741,373.527313 726.297729,377.296051 
	C727.487122,378.179138 728.902771,378.757355 730.593201,379.592651 
M747.544006,352.804321 
	C749.093506,348.556732 749.061035,344.347473 747.215393,340.191254 
	C745.315491,335.912994 741.239746,333.610168 736.676331,334.507507 
	C732.227783,335.382202 729.810486,338.331116 729.291016,342.771606 
	C729.079407,344.579956 729.096680,346.425354 729.137573,348.251068 
	C729.269531,354.143768 731.502930,357.698822 736.198181,358.979248 
	C741.382324,360.392944 744.713257,357.645386 747.544006,352.804321 
z"/>
<path fill="#000000" opacity="1.000000" stroke="none" 
	d="
M815.361816,341.874023 
	C816.870911,351.143494 816.077820,352.070343 806.948059,352.065613 
	C800.958923,352.062500 794.969727,352.006805 788.980774,352.030884 
	C787.212952,352.037994 785.325256,351.701385 783.828735,352.973999 
	C785.318481,361.371857 794.672485,364.898346 801.491699,359.782227 
	C803.058411,358.606842 804.285767,356.641327 806.575684,357.132141 
	C809.461731,357.750763 812.902161,358.002502 814.113037,361.205505 
	C815.237732,364.180725 812.689026,366.093384 810.835144,367.949677 
	C804.196167,374.596985 792.562317,376.356995 782.874207,372.255524 
	C773.762024,368.397858 768.007629,358.710632 768.409912,347.578278 
	C768.535156,344.112946 768.638672,340.628601 769.856201,337.257660 
	C774.134583,325.411926 783.170288,320.229767 797.213501,321.717529 
	C806.663757,322.718719 813.583496,330.250305 815.361816,341.874023 
M786.440796,341.660980 
	C790.089844,341.664398 793.739502,341.708405 797.387878,341.660156 
	C801.289917,341.608551 801.503662,339.434784 799.847961,336.745544 
	C797.930969,333.631989 794.901306,332.374298 791.313904,332.976288 
	C787.503296,333.615753 785.187927,336.084320 784.097595,339.713501 
	C783.703613,341.024902 784.573914,341.473663 786.440796,341.660980 
z"/>
<path fill="#000000" opacity="1.000000" stroke="none" 
	d="
M608.432251,332.630249 
	C617.066711,318.166901 639.656250,318.476624 648.846680,329.802704 
	C656.815796,339.623779 656.000488,359.520111 646.676636,367.944275 
	C636.599792,377.048767 620.113403,376.436188 611.000916,366.618591 
	C603.514832,358.553345 602.345032,344.378021 608.432251,332.630249 
M636.779968,358.211304 
	C640.881409,352.715851 640.349792,346.587158 638.699524,340.577423 
	C637.580383,336.502014 634.281921,334.546387 629.996887,334.361145 
	C625.665527,334.173920 622.667542,336.134369 620.798279,339.925110 
	C619.276672,343.010864 619.298340,346.345123 619.329102,349.691132 
	C619.369812,354.113617 620.527954,357.962311 624.680847,360.205933 
	C628.834045,362.449707 632.694885,361.600983 636.779968,358.211304 
z"/>
<path fill="#000000" opacity="1.000000" stroke="none" 
	d="
M599.027710,344.000000 
	C599.015442,352.316589 598.949585,360.133667 599.020020,367.949524 
	C599.053772,371.695648 597.502991,373.554657 593.640320,373.310730 
	C591.983643,373.206116 590.313782,373.240784 588.652466,373.293945 
	C585.354797,373.399445 583.722839,371.908600 583.725037,368.543121 
	C583.737976,348.751923 583.741394,328.960632 583.678894,309.169617 
	C583.669128,306.074585 584.956055,304.473602 588.055908,304.431122 
	C589.879211,304.406128 591.718689,304.614685 593.524414,304.441803 
	C597.779358,304.034454 599.101624,306.190491 599.072388,310.071228 
	C598.988586,321.213623 599.034912,332.356995 599.027710,344.000000 
z"/>
<path fill="#000000" opacity="1.000000" stroke="none" 
	d="
M852.060425,329.028961 
	C852.504944,333.911102 851.061157,336.146454 846.041870,336.289612 
	C839.178284,336.485413 835.629883,340.936798 835.402344,348.808990 
	C835.214966,355.291107 835.235168,361.785217 835.385620,368.268829 
	C835.469788,371.896637 834.030579,373.529572 830.398865,373.304321 
	C828.741577,373.201477 827.072876,373.248779 825.410095,373.275085 
	C822.387756,373.322906 820.714233,372.019958 820.716736,368.840179 
	C820.728149,354.535065 820.723694,340.229919 820.705078,325.924805 
	C820.701599,323.240906 822.101501,321.728668 824.655884,321.884369 
	C828.902283,322.143127 834.421509,319.581177 835.793640,326.622986 
	C847.531494,319.086548 851.535095,319.617310 852.060425,329.028961 
z"/>
<path fill="#000000" opacity="1.000000" stroke="none" 
	d="
M244.800751,328.061951 
	C242.818695,323.792023 240.907135,319.954224 237.233856,317.279175 
	C235.910156,316.315186 234.591812,314.889709 235.727982,313.036652 
	C236.807358,311.276215 238.604080,311.685333 240.234665,312.140015 
	C244.368240,313.292664 246.966995,316.388123 249.176651,319.733887 
	C251.509247,323.265808 255.027679,324.665039 258.784760,325.420929 
	C264.421753,326.554962 267.182800,323.957611 268.149078,317.121765 
	C267.026001,315.361084 265.039886,315.431580 263.321564,315.036224 
	C241.199356,309.946136 237.781540,287.923859 243.582001,274.752747 
	C246.143997,268.935242 246.666046,263.423645 246.831894,257.486908 
	C247.043869,249.899109 249.779068,247.538803 256.451660,250.946304 
	C264.416351,255.013626 272.397186,255.536179 280.891876,254.749741 
	C284.012421,254.460846 287.206573,254.513916 290.316864,255.381027 
	C292.320251,255.939545 294.220520,255.517380 296.092926,254.553299 
	C298.158417,253.489838 300.305450,252.551483 302.488892,251.756058 
	C312.453369,248.125885 315.693176,250.220566 314.824310,260.740967 
	C314.416260,265.682190 315.535553,269.622314 317.583710,273.938446 
	C325.866211,291.392273 316.909698,310.348236 298.215790,314.919586 
	C294.384552,315.856445 293.419067,317.139343 294.212860,320.920685 
	C295.759918,328.290375 295.041443,335.838806 295.342407,343.310425 
	C295.487244,346.906769 294.177734,348.490356 290.460175,348.400757 
	C284.137817,348.248322 277.804413,348.235413 271.484161,348.433716 
	C267.768555,348.550293 266.493347,347.079987 266.599823,343.439972 
	C266.804871,336.429901 267.395264,336.468872 259.611847,336.264008 
	C253.577087,336.105164 248.111420,334.241699 244.800751,328.061951 
z"/>
<path fill="#000000" opacity="1.000000" stroke="none" 
	d="
M251.460938,361.945007 
	C292.201721,361.923248 332.492279,361.906921 372.782837,361.917511 
	C381.071594,361.919678 385.269897,364.776672 385.212250,370.231079 
	C385.154816,375.668793 381.126892,378.235077 372.615906,378.236176 
	C333.657227,378.241150 294.698578,378.242432 255.739914,378.244476 
	C254.574493,378.244537 253.408310,378.264618 252.243790,378.230560 
	C246.172287,378.053009 243.046753,375.669006 242.684326,370.959412 
	C242.274124,365.628937 244.444901,363.282684 251.460938,361.945007 
z"/>
<path fill="#000000" opacity="1.000000" stroke="none" 
	d="
M248.952789,411.493713 
	C243.592957,410.022491 241.920944,406.473389 242.826721,401.817078 
	C243.705261,397.300873 247.216187,395.844452 251.438873,395.842133 
	C282.602448,395.824982 313.766113,395.791016 344.929535,395.859283 
	C350.533020,395.871552 354.106995,399.049072 354.240723,403.563873 
	C354.371552,407.981171 350.894226,411.231934 345.334137,411.801361 
	C343.846893,411.953674 342.338684,411.937561 340.840118,411.937347 
	C312.509521,411.933319 284.178955,411.927246 255.848389,411.894714 
	C253.688187,411.892242 251.528229,411.689453 248.952789,411.493713 
z"/>
<path fill="#000000" opacity="1.000000" stroke="none" 
	d="
M384.976776,331.449280 
	C384.834503,337.742584 382.823334,340.785950 377.445496,340.903381 
	C361.663605,341.247955 345.867462,341.232025 330.082733,340.984985 
	C325.078339,340.906677 321.789703,336.793518 322.148041,332.476074 
	C322.509277,328.123352 325.552979,325.680878 330.919250,325.666718 
	C345.879913,325.627167 360.841644,325.745697 375.800964,325.600281 
	C380.144348,325.558075 383.205139,326.979065 384.976776,331.449280 
z"/>
<path fill="#000000" opacity="1.000000" stroke="none" 
	d="
M367.972260,274.151611 
	C359.988464,274.152954 352.498535,274.233459 345.011169,274.130066 
	C338.847626,274.044983 335.587341,271.149963 335.688904,266.156830 
	C335.787872,261.288452 338.806061,258.780853 344.929169,258.740631 
	C355.080261,258.673950 365.232330,258.675476 375.383484,258.735901 
	C381.440582,258.771973 385.159698,261.752472 385.184082,266.374176 
	C385.208527,271.009308 381.513672,273.981018 375.456573,274.137329 
	C373.128235,274.197418 370.797119,274.149750 367.972260,274.151611 
z"/>
<path fill="#000000" opacity="1.000000" stroke="none" 
	d="
M345.353455,291.932678 
	C356.145142,291.950104 366.475403,291.927094 376.804718,292.014557 
	C380.407623,292.045044 383.291473,293.472961 384.654785,297.081909 
	C385.794464,300.098694 384.854004,302.669678 382.720734,304.838348 
	C380.847198,306.742981 378.383209,307.177917 375.815948,307.177948 
	C365.652466,307.178192 355.488556,307.234406 345.325653,307.158325 
	C339.201813,307.112518 335.966370,304.603516 335.694427,299.987152 
	C335.405945,295.090271 338.280060,292.574188 345.353455,291.932678 
z"/>
</svg>